<svg viewBox="0 0 1320 1000" xmlns="http://www.w3.org/2000/svg" font-family="ui-sans-serif, -apple-system, Segoe UI, Roboto, sans-serif">
<style>
  :root {
    --bg: #F6F7F9; --panel: #FFFFFF; --zone-border: #D7DCE3; --zone-label: #8891A0;
    --ink: #1B2430; --muted: #5B6472; --line: #9AA3B2; --line-event: #A96BC4;
    --label-bg: #F6F7F9; --log-line: #C7CDD6;
  }
  @media (prefers-color-scheme: dark) {
    :root { --bg: #10151C; --panel: #161D27; --zone-border: #2A3442; --zone-label: #6B7686;
      --ink: #E7ECF3; --muted: #8B96A5; --line: #6B7686; --line-event: #B487CB;
      --label-bg: #10151C; --log-line: #333E4C; }
  }
  svg { background: var(--bg); }
  .zone-rect { fill: none; stroke: var(--zone-border); stroke-width: 1.5; stroke-dasharray: 5 5; }
  .zone-label { fill: var(--zone-label); font-size: 11px; letter-spacing: 2px; font-weight: 600; }
  .label { fill: var(--ink); font-size: 12.5px; font-weight: 600; }
  .sub { fill: var(--muted); font-size: 10px; font-family: ui-monospace, SFMono-Regular, Menlo, monospace; }
  .edge-sync { stroke: var(--line); stroke-width: 1.8; }
  .edge-event { stroke: var(--line-event); stroke-width: 1.8; stroke-dasharray: 5 4; }
  .edge-log { stroke: var(--log-line); stroke-width: 1.3; stroke-dasharray: 1.5 3; }
  .edge-text { fill: var(--muted); font-size: 10px; font-family: ui-monospace, SFMono-Regular, Menlo, monospace; }
  .edge-label-bg { fill: var(--label-bg); opacity: 0.92; }
  .badge { filter: drop-shadow(0 1px 2px rgba(0,0,0,0.18)); }
  .title { fill: var(--ink); font-size: 21px; font-weight: 700; }
  .subtitle { fill: var(--muted); font-size: 12.5px; font-family: ui-monospace, SFMono-Regular, Menlo, monospace; }
  .legend-text { fill: var(--muted); font-size: 10.5px; }
  .legend-key { fill: var(--muted); font-size: 10px; font-family: ui-monospace, SFMono-Regular, Menlo, monospace; }
</style>
<defs>
  <marker id="arrow-sync" viewBox="0 0 10 10" refX="9" refY="5" markerWidth="7" markerHeight="7" orient="auto-start-reverse">
    <path d="M0 0 L10 5 L0 10 Z" fill="var(--line)"/>
  </marker>
  <marker id="arrow-event" viewBox="0 0 10 10" refX="9" refY="5" markerWidth="7" markerHeight="7" orient="auto-start-reverse">
    <path d="M0 0 L10 5 L0 10 Z" fill="var(--line-event)"/>
  </marker>
  <marker id="arrow-log" viewBox="0 0 10 10" refX="9" refY="5" markerWidth="6" markerHeight="6" orient="auto-start-reverse">
    <path d="M0 0 L10 5 L0 10 Z" fill="var(--log-line)"/>
  </marker>
</defs>

<text x="30" y="34" class="title">CloudResume — Serverless Architecture</text>
<text x="30" y="56" class="subtitle">v8 · single AWS account · ap-northeast-1 · fully serverless, no idle compute</text>

<rect x="20" y="90" width="1280" height="430" rx="14" class="zone-rect"/><text x="34" y="110" class="zone-label">REQUEST PATH</text>
<rect x="20" y="550" width="1280" height="200" rx="14" class="zone-rect"/><text x="34" y="570" class="zone-label">EVENT-DRIVEN AUTOMATION</text>
<rect x="20" y="770" width="1280" height="160" rx="14" class="zone-rect"/><text x="34" y="790" class="zone-label">OBSERVABILITY & DEPLOYMENT</text>

<path d="M 115 260 L 232 260" class="edge edge-sync" marker-end="url(#arrow-sync)" fill="none"/>
<path d="M 288 260 L 442 260" class="edge edge-sync" marker-end="url(#arrow-sync)" fill="none"/><g class="edge-label">
      <rect x="338.65" y="234" width="52.699999999999996" height="15" class="edge-label-bg"/>
      <text x="365" y="245" text-anchor="middle" class="edge-text">alias A</text>
    </g>
<path d="M 288 260 L 365 260 L 365 400 L 442 400" class="edge edge-sync" marker-end="url(#arrow-sync)" fill="none"/><g class="edge-label">
      <rect x="299.25" y="376" width="101.5" height="15" class="edge-label-bg"/>
      <text x="350" y="387" text-anchor="middle" class="edge-text">alias A · api.*</text>
    </g>
<path d="M 470 163 L 470 232" class="edge edge-sync" marker-end="url(#arrow-sync)" fill="none"/>
<path d="M 498 260 L 652 260" class="edge edge-sync" marker-end="url(#arrow-sync)" fill="none"/><g class="edge-label">
      <rect x="533.4" y="234" width="83.19999999999999" height="15" class="edge-label-bg"/>
      <text x="575" y="245" text-anchor="middle" class="edge-text">origin fetch</text>
    </g>
<path d="M 498 400 L 680 400 L 680 330 L 865 330" class="edge edge-sync" marker-end="url(#arrow-sync)" fill="none"/>
<path d="M 498 400 L 680 400 L 680 450 L 865 450" class="edge edge-sync" marker-end="url(#arrow-sync)" fill="none"/>
<path d="M 915 330 L 1102 330" class="edge edge-sync" marker-end="url(#arrow-sync)" fill="none"/><g class="edge-label">
      <rect x="974.5" y="304" width="71" height="15" class="edge-label-bg"/>
      <text x="1010" y="315" text-anchor="middle" class="edge-text">send email</text>
    </g>
<path d="M 915 450 L 1102 450" class="edge edge-sync" marker-end="url(#arrow-sync)" fill="none"/><g class="edge-label">
      <rect x="962.3" y="424" width="95.39999999999999" height="15" class="edge-label-bg"/>
      <text x="1010" y="435" text-anchor="middle" class="edge-text">put / get item</text>
    </g>
<path d="M 288 630 L 445 630" class="edge edge-event" marker-end="url(#arrow-event)" fill="none"/><g class="edge-label">
      <rect x="341.7" y="604" width="46.599999999999994" height="15" class="edge-label-bg"/>
      <text x="365" y="615" text-anchor="middle" class="edge-text">invoke</text>
    </g>
<path d="M 680 288 L 650 605" class="edge edge-event" marker-end="url(#arrow-event)" fill="none"/><g class="edge-label">
      <rect x="685.35" y="435" width="89.3" height="15" class="edge-label-bg"/>
      <text x="730" y="446" text-anchor="middle" class="edge-text">ObjectCreated</text>
    </g>
<path d="M 675 630 L 865 630" class="edge edge-event" marker-end="url(#arrow-event)" fill="none"/><g class="edge-label">
      <rect x="716.2" y="604" width="107.6" height="15" class="edge-label-bg"/>
      <text x="770" y="615" text-anchor="middle" class="edge-text">event source map</text>
    </g>
<path d="M 470 655 L 470 700 L 760 700 L 760 344 L 696 344 L 696 288" class="edge edge-sync" marker-end="url(#arrow-sync)" fill="none"/><g class="edge-label">
      <rect x="809.6" y="404" width="180.79999999999998" height="15" class="edge-label-bg"/>
      <text x="900" y="415" text-anchor="middle" class="edge-text">PutObject contributions.json</text>
    </g>
<path d="M 890 655 L 890 735 L 30 735 L 30 344 L 454 344 L 454 288" class="edge edge-event" marker-end="url(#arrow-event)" fill="none"/><g class="edge-label">
      <rect x="60.7" y="395" width="168.6" height="15" class="edge-label-bg"/>
      <text x="145" y="406" text-anchor="middle" class="edge-text">CreateInvalidation (async)</text>
    </g>
<path d="M 118 830 L 180 830 L 180 350 L 664 350 L 664 288" class="edge edge-sync" marker-end="url(#arrow-sync)" fill="none"/><g class="edge-label">
      <rect x="237.05" y="330" width="125.89999999999999" height="15" class="edge-label-bg"/>
      <text x="300" y="341" text-anchor="middle" class="edge-text">sync build --delete</text>
    </g>
<path d="M 90 802 L 90 520" class="edge edge-sync" marker-end="url(#arrow-sync)" fill="none"/><g class="edge-label">
      <rect x="60.95" y="690" width="138.1" height="15" class="edge-label-bg"/>
      <text x="130" y="701" text-anchor="middle" class="edge-text">terraform apply → AWS</text>
    </g>
<path d="M 915 330 L 980 330 L 980 790 L 680 790" class="edge edge-log" fill="none"/>
<path d="M 915 450 L 1000 450 L 1000 790 L 680 790" class="edge edge-log" fill="none"/>
<path d="M 495 630 L 562 630 L 562 790 L 680 790" class="edge edge-log" fill="none"/>
<path d="M 890 655 L 890 790 L 680 790" class="edge edge-log" fill="none"/>
<path d="M 493 140 L 558 140 L 558 790 L 680 790" class="edge edge-log" fill="none"/>
<path d="M 680 790 L 680 802" class="edge edge-log" marker-end="url(#arrow-log)" fill="none"/>


  <g class="node">
    <rect x="65" y="235" width="50" height="50" rx="13" class="badge" fill="#7C8898"/>
    <g transform="translate(90 260)" color="#FFFFFF" class="icon"><circle cx="0" cy="-6" r="7" fill="currentColor"/><path d="M -12 15 Q 0 -3 12 15 Z" fill="currentColor"/></g>
    <text x="90" y="302" class="label" text-anchor="middle">Visitor</text>
    <text x="90" y="317" class="sub" text-anchor="middle">browser</text>
  </g>

  <g class="node">
    <rect x="232" y="232" width="56" height="56" rx="13" class="badge" fill="#6C4CE0"/>
    <g transform="translate(260 260)" color="#FFFFFF" class="icon"><circle cx="0" cy="0" r="14" fill="none" stroke="currentColor" stroke-width="2.4"/>
    <ellipse cx="0" cy="0" rx="6" ry="14" fill="none" stroke="currentColor" stroke-width="2.2"/>
    <line x1="-14" y1="0" x2="14" y2="0" stroke="currentColor" stroke-width="2.2"/>
    <path d="M -12 -7 Q 0 -3 12 -7" fill="none" stroke="currentColor" stroke-width="2"/>
    <path d="M -12 7 Q 0 3 12 7" fill="none" stroke="currentColor" stroke-width="2"/></g>
    <text x="260" y="305" class="label" text-anchor="middle">Route 53</text>
    <text x="260" y="320" class="sub" text-anchor="middle">DNS · DNSSEC</text>
  </g>

  <g class="node">
    <rect x="447" y="117" width="46" height="46" rx="13" class="badge" fill="#D64550"/>
    <g transform="translate(470 140)" color="#FFFFFF" class="icon"><path d="M0 -14 L12 -9 V2 C12 9 6 14 0 16 C-6 14 -12 9 -12 2 V-9 Z" fill="none" stroke="currentColor" stroke-width="2.4"/>
    <path d="M-5 0 L-1 5 L6 -6" fill="none" stroke="currentColor" stroke-width="2.4" stroke-linecap="round" stroke-linejoin="round"/></g>
    <text x="470" y="180" class="label" text-anchor="middle">WAF</text>
    <text x="470" y="195" class="sub" text-anchor="middle">managed rules</text>
  </g>

  <g class="node">
    <rect x="442" y="232" width="56" height="56" rx="13" class="badge" fill="#6C4CE0"/>
    <g transform="translate(470 260)" color="#FFFFFF" class="icon"><path d="M-13 6 A7 7 0 0 1 -11 -8 A9 9 0 0 1 6 -11 A8 8 0 0 1 14 3 A6 6 0 0 1 12 15 H-9 A6 6 0 0 1 -13 6 Z" fill="none" stroke="currentColor" stroke-width="2.4"/></g>
    <text x="470" y="305" class="label" text-anchor="middle">CloudFront</text>
    <text x="470" y="320" class="sub" text-anchor="middle">OAC</text>
  </g>

  <g class="node">
    <rect x="442" y="372" width="56" height="56" rx="13" class="badge" fill="#6C4CE0"/>
    <g transform="translate(470 400)" color="#FFFFFF" class="icon"><rect x="-11" y="-13" width="22" height="26" rx="2" fill="none" stroke="currentColor" stroke-width="2.3"/>
    <line x1="-11" y1="-13" x2="3" y2="-16" stroke="currentColor" stroke-width="2.1"/>
    <line x1="-11" y1="13" x2="3" y2="16" stroke="currentColor" stroke-width="2.1"/>
    <line x1="11" y1="-13" x2="3" y2="-16" stroke="currentColor" stroke-width="2.1"/>
    <line x1="11" y1="13" x2="3" y2="16" stroke="currentColor" stroke-width="2.1"/>
    <circle cx="4" cy="0" r="1.6" fill="currentColor"/></g>
    <text x="470" y="445" class="label" text-anchor="middle">API Gateway</text>
    <text x="470" y="460" class="sub" text-anchor="middle">EDGE · custom domain</text>
  </g>

  <g class="node">
    <rect x="652" y="232" width="56" height="56" rx="13" class="badge" fill="#4C9A63"/>
    <g transform="translate(680 260)" color="#FFFFFF" class="icon"><path d="M-12 -9 L-10 12 A11 3 0 0 0 10 12 L12 -9" fill="none" stroke="currentColor" stroke-width="2.3"/>
    <ellipse cx="0" cy="-9" rx="12" ry="3.2" fill="none" stroke="currentColor" stroke-width="2.3"/></g>
    <text x="680" y="305" class="label" text-anchor="middle">S3</text>
    <text x="680" y="320" class="sub" text-anchor="middle">site + data</text>
  </g>

  <g class="node">
    <rect x="865" y="305" width="50" height="50" rx="13" class="badge" fill="#E07B29"/>
    <g transform="translate(890 330)" color="#FFFFFF" class="icon"><path d="M-9 14 L-1.5 -14 M-1.5 -14 L2 -14 M-4.5 2 L7 14 M-4.5 2 L-9.6 14" fill="none" stroke="currentColor" stroke-width="2.6" stroke-linecap="round" stroke-linejoin="round"/></g>
    <text x="890" y="372" class="label" text-anchor="middle">λ sendMessage</text>
    <text x="890" y="387" class="sub" text-anchor="middle">POST /contact</text>
  </g>

  <g class="node">
    <rect x="865" y="425" width="50" height="50" rx="13" class="badge" fill="#E07B29"/>
    <g transform="translate(890 450)" color="#FFFFFF" class="icon"><path d="M-9 14 L-1.5 -14 M-1.5 -14 L2 -14 M-4.5 2 L7 14 M-4.5 2 L-9.6 14" fill="none" stroke="currentColor" stroke-width="2.6" stroke-linecap="round" stroke-linejoin="round"/></g>
    <text x="890" y="492" class="label" text-anchor="middle">λ trackVisitors</text>
    <text x="890" y="507" class="sub" text-anchor="middle">GET /visitors</text>
  </g>

  <g class="node">
    <rect x="1102" y="302" width="56" height="56" rx="13" class="badge" fill="#C23E86"/>
    <g transform="translate(1130 330)" color="#FFFFFF" class="icon"><rect x="-13" y="-9" width="26" height="18" rx="2" fill="none" stroke="currentColor" stroke-width="2.3"/>
    <path d="M-13 -8 L0 3 L13 -8" fill="none" stroke="currentColor" stroke-width="2.2" stroke-linejoin="round"/></g>
    <text x="1130" y="375" class="label" text-anchor="middle">SES</text>
    <text x="1130" y="390" class="sub" text-anchor="middle">contact mail</text>
  </g>

  <g class="node">
    <rect x="1102" y="422" width="56" height="56" rx="13" class="badge" fill="#3D5AC4"/>
    <g transform="translate(1130 450)" color="#FFFFFF" class="icon"><ellipse cx="0" cy="-9" rx="12" ry="4.2" fill="none" stroke="currentColor" stroke-width="2.3"/>
    <path d="M-12 -9 V9 A12 4.2 0 0 0 12 9 V-9" fill="none" stroke="currentColor" stroke-width="2.3"/>
    <path d="M-12 0 A12 4.2 0 0 0 12 0" fill="none" stroke="currentColor" stroke-width="2"/></g>
    <text x="1130" y="495" class="label" text-anchor="middle">DynamoDB</text>
    <text x="1130" y="510" class="sub" text-anchor="middle">2 tables</text>
  </g>

  <g class="node">
    <rect x="232" y="602" width="56" height="56" rx="13" class="badge" fill="#C23E86"/>
    <g transform="translate(260 630)" color="#FFFFFF" class="icon"><circle cx="0" cy="0" r="14" fill="none" stroke="currentColor" stroke-width="2.3"/>
    <path d="M0 -8 V0 L6 4" fill="none" stroke="currentColor" stroke-width="2.3" stroke-linecap="round"/>
    <path d="M11 -11 A14 14 0 0 1 13 -2" fill="none" stroke="currentColor" stroke-width="2" stroke-linecap="round"/></g>
    <text x="260" y="675" class="label" text-anchor="middle">EventBridge</text>
    <text x="260" y="690" class="sub" text-anchor="middle">rate(6h)</text>
  </g>

  <g class="node">
    <rect x="445" y="605" width="50" height="50" rx="13" class="badge" fill="#E07B29"/>
    <g transform="translate(470 630)" color="#FFFFFF" class="icon"><path d="M-9 14 L-1.5 -14 M-1.5 -14 L2 -14 M-4.5 2 L7 14 M-4.5 2 L-9.6 14" fill="none" stroke="currentColor" stroke-width="2.6" stroke-linecap="round" stroke-linejoin="round"/></g>
    <text x="470" y="672" class="label" text-anchor="middle">λ updateContributions</text>
    <text x="470" y="687" class="sub" text-anchor="middle">merges GH graphs</text>
  </g>

  <g class="node">
    <rect x="625" y="605" width="50" height="50" rx="13" class="badge" fill="#C23E86"/>
    <g transform="translate(650 630)" color="#FFFFFF" class="icon"><rect x="-13" y="-6" width="9" height="14" rx="1.5" fill="none" stroke="currentColor" stroke-width="2.1"/>
    <rect x="-2" y="-8" width="9" height="16" rx="1.5" fill="none" stroke="currentColor" stroke-width="2.1"/>
    <rect x="9" y="-6" width="9" height="14" rx="1.5" fill="none" stroke="currentColor" stroke-width="2.1"/></g>
    <text x="650" y="672" class="label" text-anchor="middle">SQS</text>
    <text x="650" y="687" class="sub" text-anchor="middle">invalidation queue</text>
  </g>

  <g class="node">
    <rect x="865" y="605" width="50" height="50" rx="13" class="badge" fill="#E07B29"/>
    <g transform="translate(890 630)" color="#FFFFFF" class="icon"><path d="M-9 14 L-1.5 -14 M-1.5 -14 L2 -14 M-4.5 2 L7 14 M-4.5 2 L-9.6 14" fill="none" stroke="currentColor" stroke-width="2.6" stroke-linecap="round" stroke-linejoin="round"/></g>
    <text x="890" y="672" class="label" text-anchor="middle">λ cloudfrontInvalidation</text>
    <text x="890" y="687" class="sub" text-anchor="middle">batch 15 / 5s window</text>
  </g>

  <g class="node">
    <rect x="652" y="802" width="56" height="56" rx="13" class="badge" fill="#157A8C"/>
    <g transform="translate(680 830)" color="#FFFFFF" class="icon"><path d="M-14 0 C-9 -9 9 -9 14 0 C9 9 -9 9 -14 0 Z" fill="none" stroke="currentColor" stroke-width="2.2"/>
    <circle cx="0" cy="0" r="4.5" fill="none" stroke="currentColor" stroke-width="2.2"/></g>
    <text x="680" y="875" class="label" text-anchor="middle">CloudWatch</text>
    <text x="680" y="890" class="sub" text-anchor="middle">logs + metrics</text>
  </g>

  <g class="node">
    <rect x="867" y="807" width="46" height="46" rx="13" class="badge" fill="#D64550"/>
    <g transform="translate(890 830)" color="#FFFFFF" class="icon"><circle cx="-6" cy="-6" r="6" fill="none" stroke="currentColor" stroke-width="2.3"/>
    <path d="M-1.5 -1 L13 13 M9 9 L13 5 M5 13 L9 9" fill="none" stroke="currentColor" stroke-width="2.3" stroke-linecap="round" stroke-linejoin="round"/></g>
    <text x="890" y="870" class="label" text-anchor="middle">IAM</text>
    <text x="890" y="885" class="sub" text-anchor="middle">least-privilege roles</text>
  </g>

  <g class="node">
    <rect x="62" y="802" width="56" height="56" rx="13" class="badge" fill="#3A4552"/>
    <g transform="translate(90 830)" color="#FFFFFF" class="icon"><circle cx="0" cy="4" r="5" fill="none" stroke="currentColor" stroke-width="2.2"/>
    <circle cx="-11" cy="-10" r="4.2" fill="none" stroke="currentColor" stroke-width="2.1"/>
    <circle cx="11" cy="-10" r="4.2" fill="none" stroke="currentColor" stroke-width="2.1"/>
    <path d="M0 -1 V-6 M0 -6 Q0 -10 -7 -10 M0 -6 Q0 -10 7 -10" fill="none" stroke="currentColor" stroke-width="2.1"/></g>
    <text x="90" y="875" class="label" text-anchor="middle">GitHub Actions</text>
    <text x="90" y="890" class="sub" text-anchor="middle">OIDC, no static keys</text>
  </g>

<g transform="translate(30, 978)">
  <line x1="0" y1="-4" x2="26" y2="-4" class="edge-sync" marker-end="url(#arrow-sync)"/>
  <text x="32" y="0" class="legend-text">request / response</text>
  <line x1="190" y1="-4" x2="216" y2="-4" class="edge-event" marker-end="url(#arrow-event)"/>
  <text x="222" y="0" class="legend-text">async event</text>
  <line x1="340" y1="-4" x2="366" y2="-4" class="edge-log" marker-end="url(#arrow-log)"/>
  <text x="372" y="0" class="legend-text">logs / metrics</text>
</g>
</svg>